{"title":"Gunday (2014) Hindi Movie Official Trailer - Ranveer, Arjun, Pri","uid":9345234,"size":85112990,"categoryP":"video","categoryS":"movie_clips","magnet":"?xt=urn:btih:39f7561c907af75c1c4c5a928767c0e6de66182c&amp;dn=Gunday+%282014%29+Hindi+Movie+Official+Trailer+-+Ranveer%2C+Arjun%2C+Pri&amp;tr=udp%3A%2F%2Ftracker.openbittorrent.com%3A80&amp;tr=udp%3A%2F%2Fopen.demonii.com%3A1337&amp;tr=udp%3A%2F%2Ftracker.coppersurfer.tk%3A6969&amp;tr=udp%3A%2F%2Fexodus.desync.com%3A6969","seeders":1,"leechers":0,"uploader":"Palash995","files":1,"time":1387027366,"description":"[center][b][size=200][color=red]Without Any reason..Don't Dislike the torrent.....please check and give your feedback[/color][/size]\n\n[img]http://i843.photobucket.com/albums/zz358/0Krish0/qiWyCf1pvj_zps682a8ccb.png[/img]\n\n[size=100][color=red]Gunday (2014) Hindi Movie Official Trailer - Ranveer, Arjun, Priyanka - HD 1080p[/color][/size]\n\n\nBased in Calcutta during its most unsettled times in the '70's, the film deals with the inseparable life of Bikram and Bala. \nThe story of 2 boys, boys who became refugees.\nRefugees who became gun couriers.\nGun Couriers who became coal bandits, Coal bandits who became Calcutta's\nMost Loved, Most Celebrated, Most Reckless, Most Fearless, Most Powerful!\nA story of two happy-go-lucky renegades who came to be known as... GUNDAY!\n\nDirected by Ali Abbas Zafar and Produced by Aditya Chopra, the film stars Ranveer Singh &amp; Arjun Kapoor, as Bikram and Bala, along with Priyanka Chopra and Irrfan Khan, in lead roles.\n\nGUNDAY releases worldwide on 14th February 2014.\n\nScreenshots:-\n\n\n\n\n\n\nMedia Info:-\n\nGeneral\nComplete name : Gunday (2014) Hindi Movie Official Trailer - Ranveer, Arjun, Priyanka - HD 1080p {DAKU RG} {GreatPalash}.mp4\nFormat : MPEG-4\nFormat profile : Base Media\nCodec ID : isom\nFile size : 81.2 MiB\nDuration : 2mn 59s\nOverall bit rate mode : Variable\nOverall bit rate : 3 786 Kbps\nWriting application : Lavf53.31.100\n\nVideo\nID : 1\nFormat : AVC\nFormat/Info : Advanced Video Codec\nFormat profile : &lt;a class=&quot;__cf_email__&quot; href=&quot;/cdn-cgi/l/email-protection&quot; data-cfemail=&quot;266e4f414e666a120817&quot;&gt;[email&amp;#160;protected]&lt;/a&gt;&lt;script data-cfhash='f9e31' type=&quot;text/javascript&quot;&gt;\n/* &lt;![CDATA[ */!function(){try{var t=&quot;currentScript&quot;in document?document.currentScript:function(){for(var t=document.getElementsByTagName(&quot;script&quot;),e=t.length;e--;)if(t[e].getAttribute(&quot;data-cfhash&quot;))return t[e]}();if(t&amp;&amp;t.previousSibling){var e,r,n,i,c=t.previousSibling,a=c.getAttribute(&quot;data-cfemail&quot;);if(a){for(e=&quot;&quot;,r=parseInt(a.substr(0,2),16),n=2;a.length-n;n+=2)i=parseInt(a.substr(n,2),16)^r,e+=String.fromCharCode(i);e=document.createTextNode(e),c.parentNode.replaceChild(e,c)}t.parentNode.removeChild(t);}}catch(u){}}()/* ]]&gt; */&lt;/script&gt;\nFormat settings, CABAC : Yes\nFormat settings, ReFrames : 3 frames\nCodec ID : avc1\nCodec ID/Info : Advanced Video Coding\nDuration : 2mn 59s\nBit rate mode : Variable\nBit rate : 3 654 Kbps\nMaximum bit rate : 19.2 Mbps\nWidth : 1 920 pixels\nHeight : 1 080 pixels\nDisplay aspect ratio : 16:9\nFrame rate mode : Constant\nFrame rate : 24.000 fps\nStandard : NTSC\nColor space : YUV\nChroma subsampling : 4:2:0\nBit depth : 8 bits\nScan type : Progressive\nBits/(Pixel*Frame) : 0.073\nStream size : 78.3 MiB (97%)\nColor primaries : BT.709\nTransfer characteristics : BT.709\nMatrix coefficients : BT.709\n\nAudio\nID : 2\nFormat : AAC\nFormat/Info : Advanced Audio Codec\nFormat profile : LC\nCodec ID : 40\nDuration : 2mn 59s\nBit rate mode : Constant\nBit rate : 126 Kbps\nChannel(s) : 2 channels\nChannel positions : Front: L R\nSampling rate : 44.1 KHz\nCompression mode : Lossy\nStream size : 2.69 MiB (3%)\n\n[IMG]http://imageshack.us/a/img89/4822/zka.gif[/IMG]\n\n[IMG]http://imageshack.us/a/img200/185/tj8.gif[/IMG]\n\n[IMG]http://imageshack.us/a/img593/9603/ua8.gif[/IMG]\n\n[IMG]http://imageshack.us/a/img707/5608/ysmp.png[/IMG][/b][/center]","torrent":{"xt":"urn:btih:39f7561c907af75c1c4c5a928767c0e6de66182c","amp;dn":"Gunday+%282014%29+Hindi+Movie+Official+Trailer+-+Ranveer%2C+Arjun%2C+Pri","amp;tr":["udp%3A%2F%2Ftracker.openbittorrent.com%3A80","udp%3A%2F%2Fopen.demonii.com%3A1337","udp%3A%2F%2Ftracker.coppersurfer.tk%3A6969","udp%3A%2F%2Fexodus.desync.com%3A6969"],"infoHash":"39f7561c907af75c1c4c5a928767c0e6de66182c","infoHashBuffer":{"type":"Buffer","data":[57,247,86,28,144,122,247,92,28,76,90,146,135,103,192,230,222,102,24,44]},"announce":[],"urlList":[]}}